<?xml version="1.0" encoding="utf-8"?>
<!-- Generator: Adobe Illustrator 16.0.0, SVG Export Plug-In . SVG Version: 6.00 Build 0)  -->
<!DOCTYPE svg PUBLIC "-//W3C//DTD SVG 1.1//EN" "http://www.w3.org/Graphics/SVG/1.1/DTD/svg11.dtd">
<svg version="1.1" id="Слой_1" xmlns="http://www.w3.org/2000/svg" xmlns:xlink="http://www.w3.org/1999/xlink" x="0px" y="0px"
	 width="1417.32px" height="1417.32px" viewBox="0 0 1417.32 1417.32" enable-background="new 0 0 1417.32 1417.32"
	 xml:space="preserve">
<g>
	<path fill-rule="evenodd" clip-rule="evenodd" d="M-0.5,1275.446c0-377.472,0-754.945,0-1132.418
		c0.821-3.134,1.995-6.222,2.412-9.409C10.314,69.648,58.982,16.93,121.875,3.845c6.783-1.412,13.617-2.569,20.426-3.845
		c377.309,0,754.616,0,1131.926,0c4.463,0.835,8.91,1.78,13.394,2.488c61.137,9.657,112.118,58.079,124.765,118.557
		c0.71,3.382,1.351,6.781,2.022,10.173c0,385.345,0,770.689,0,1156.038c-0.726,3.604-1.286,7.25-2.206,10.802
		c-16.135,62.125-55.32,100.976-117.487,116.579c-3.335,0.838-6.668,1.682-10.005,2.525c-384.298,0-768.592,0-1152.89,0
		c-1.41-0.458-2.789-1.093-4.235-1.349c-63.016-11.028-112.62-60.168-124.401-123.221C2.109,1286.848,0.734,1281.16-0.5,1275.446z
		 M1030.93,696.989c0-123.781,0-246.563,0-369.61c-20.387,0-40.329,0-60.887,0c0,97.87,0,195.31,0,293.123c-3.138,0-5.667,0-8.451,0
		c-1.054-1.827-2.17-3.686-3.211-5.582c-23.052-41.929-46.098-83.86-69.139-125.794c-28.722-52.273-57.489-104.523-86.063-156.879
		c-2.191-4.011-4.604-5.437-9.136-5.402c-27.29,0.213-54.58,0.106-81.87,0.106c-2.096,0-4.19,0-6.389,0
		c0,123.758,0,246.558,0,369.654c20.319,0,40.272,0,60.944,0c0-11.261,0-22.147,0-33.034c0-10.715,0-21.431,0-32.146
		c0-10.933,0-21.867,0-32.799c0-10.934,0-21.869,0-32.802c0-10.713,0-21.428,0-32.145c0-10.933,0-21.868,0-32.799
		c0-10.936,0-21.869,0-32.804c0-10.712-0.027-21.429,0.006-32.142c0.031-10.844-0.145-21.694,0.121-32.523c3.303,0,5.621,0,7.985,0
		c1.427,2.51,2.75,4.764,4.007,7.055c51.335,93.446,102.698,186.879,153.876,280.412c2.564,4.684,5.379,6.288,10.629,6.234
		c26.851-0.269,53.707-0.124,80.561-0.124C1026.072,696.989,1028.232,696.989,1030.93,696.989z M705.034,1090.647
		c0.248-0.479,0.495-0.955,0.741-1.435c-56.039-63.158-112.081-126.316-167.92-189.252c0.239-0.762,0.272-0.987,0.377-1.176
		c0.211-0.379,0.414-0.773,0.698-1.095c49.966-57.017,99.939-114.021,149.914-171.027c0.863-0.986,1.721-1.979,2.574-2.973
		c0.284-0.333,0.562-0.672,0.807-1.032c0.116-0.173,0.174-0.401,0.198-0.608c0.023-0.201,0.004-0.423-0.054-0.616
		c-0.061-0.199-0.193-0.376-0.438-0.825c-22.985,0-46.117,0.116-69.244-0.099c-4.567-0.04-7.613,1.366-10.592,4.826
		c-24.797,28.813-49.772,57.471-74.698,86.175c-16.187,18.638-32.359,37.291-48.604,55.882c-1.374,1.571-3.134,3.64-4.915,3.862
		c-4.408,0.55-8.934,0.157-14.033,0.142c0-50.695,0-100.427,0-150.053c-9.761-1.445-57.929-1.013-62.232,0.42
		c0,122.811,0,245.583,0,368.534c20.88,0,41.303,0,62.434,0c0-9.015,0-17.698,0-26.385c0-8.746,0-17.488,0-26.233
		c0-8.746,0-17.491,0-26.238c0-8.741,0-17.491,0-26.233c0-8.745-0.042-17.491,0.014-26.235c0.055-8.639-0.255-17.294,0.198-26.046
		c2.592-0.123,4.35-0.036,6.046-0.319c6.995-1.172,11.483,1.927,16.057,7.206c42.344,48.877,85.028,97.458,127.471,146.246
		c3.033,3.487,6.109,4.732,10.639,4.685c22.043-0.218,44.092-0.097,66.138-0.097
		C699.419,1090.647,702.227,1090.647,705.034,1090.647z M926.713,1090.424c0.663-1.522,1.344-2.874,1.858-4.29
		c44.054-121.324,88.094-242.653,132.118-363.987c0.057-0.153-0.125-0.405-0.217-0.6c-0.093-0.187-0.213-0.354-0.431-0.707
		c-21.458,0-43.021,0-65.226,0c-35.909,101.423-71.82,202.849-107.782,304.424c-3.647,0-6.844,0-10.525,0
		c-34.721-101.519-69.405-202.932-104.01-304.11c-10.621-1.239-62.211-0.777-67.523,0.725
		c43.334,122.911,86.657,245.777,129.943,368.546C865.942,1090.424,896.256,1090.424,926.713,1090.424z M479.949,696.578
		c21.526,0,41.94,0,63.026,0c0-8.433,0-16.473,0-24.509c0-7.875,0-15.745,0-23.619c0-8.092,0-16.183,0-24.275
		c0-7.871,0-15.745,0-23.618c0-8.089,0-16.182,0-24.273c0-7.873,0-15.745,0-23.618c0-8.09,0-16.182,0-24.273
		c0-7.873,0-15.745,0-23.619c0-8.092,0-16.184,0-24.275c0-7.871,0-15.744,0-23.618c0-8.092,0-16.182,0-24.274
		c0-7.872-0.046-15.746,0.014-23.618c0.061-7.974-0.274-15.972,0.266-24.575c42.22,0,83.581,0,125.078,0c0-19.376,0-38.063,0-56.676
		c-8.183-1.419-309.119-1.051-313.581,0.304c0,18.714,0,37.415,0,56.757c41.808,0,83.187,0,125.197,0
		C479.949,488.991,479.949,592.541,479.949,696.578z"/>
	<path fill-rule="evenodd" clip-rule="evenodd" fill="#FFFFFF" d="M1030.93,696.989c-2.697,0-4.857,0-7.018,0
		c-26.854,0-53.71-0.145-80.561,0.124c-5.25,0.054-8.064-1.55-10.629-6.234c-51.178-93.533-102.541-186.966-153.876-280.412
		c-1.257-2.291-2.58-4.545-4.007-7.055c-2.364,0-4.683,0-7.985,0c-0.266,10.829-0.09,21.679-0.121,32.523
		c-0.033,10.712-0.006,21.429-0.006,32.142c0,10.935,0,21.868,0,32.804c0,10.931,0,21.866,0,32.799c0,10.716,0,21.431,0,32.145
		c0,10.934,0,21.868,0,32.802c0,10.932,0,21.866,0,32.799c0,10.714,0,21.43,0,32.146c0,10.887,0,21.773,0,33.034
		c-20.672,0-40.625,0-60.944,0c0-123.097,0-245.896,0-369.654c2.199,0,4.293,0,6.389,0c27.29,0,54.58,0.107,81.87-0.106
		c4.531-0.035,6.944,1.391,9.136,5.402c28.574,52.356,57.342,104.605,86.063,156.879c23.041,41.934,46.087,83.865,69.139,125.794
		c1.041,1.896,2.157,3.755,3.211,5.582c2.784,0,5.313,0,8.451,0c0-97.813,0-195.253,0-293.123c20.558,0,40.5,0,60.887,0
		C1030.93,450.426,1030.93,573.208,1030.93,696.989z"/>
	<path fill-rule="evenodd" clip-rule="evenodd" fill="#FFFFFF" d="M705.034,1090.647c-2.807,0-5.615,0-8.422,0
		c-22.046,0-44.095-0.121-66.138,0.097c-4.53,0.048-7.606-1.197-10.639-4.685c-42.443-48.788-85.127-97.369-127.471-146.246
		c-4.574-5.279-9.063-8.378-16.057-7.206c-1.697,0.283-3.454,0.196-6.046,0.319c-0.454,8.752-0.144,17.407-0.198,26.046
		c-0.057,8.744-0.014,17.49-0.014,26.235c0,8.742,0,17.492,0,26.233c0,8.747,0,17.492,0,26.238c0,8.745,0,17.487,0,26.233
		c0,8.687,0,17.37,0,26.385c-21.131,0-41.554,0-62.434,0c0-122.951,0-245.724,0-368.534c4.303-1.433,52.471-1.865,62.232-0.42
		c0,49.626,0,99.357,0,150.053c5.1,0.016,9.625,0.408,14.033-0.142c1.78-0.223,3.541-2.291,4.915-3.862
		c16.245-18.591,32.417-37.244,48.604-55.882c24.926-28.704,49.901-57.361,74.698-86.175c2.979-3.46,6.024-4.866,10.592-4.826
		c23.127,0.215,46.258,0.099,69.244,0.099c0.245,0.449,0.376,0.626,0.438,0.825c0.058,0.193,0.078,0.415,0.054,0.616
		c-0.023,0.207-0.082,0.436-0.198,0.608c-0.245,0.36-0.523,0.699-0.807,1.032c-0.853,0.994-1.711,1.986-2.574,2.973
		c-49.975,57.007-99.948,114.011-149.914,171.027c-0.284,0.321-0.487,0.716-0.698,1.095c-0.104,0.188-0.138,0.414-0.377,1.176
		c55.839,62.936,111.881,126.094,167.92,189.252C705.529,1089.692,705.282,1090.168,705.034,1090.647z"/>
	<path fill-rule="evenodd" clip-rule="evenodd" fill="#FFFFFF" d="M926.713,1090.424c-30.457,0-60.771,0-91.794,0
		c-43.286-122.769-86.608-245.635-129.943-368.546c5.312-1.502,56.902-1.964,67.523-0.725
		c34.604,101.179,69.289,202.592,104.01,304.11c3.682,0,6.878,0,10.525,0c35.962-101.575,71.873-203.001,107.782-304.424
		c22.205,0,43.768,0,65.226,0c0.218,0.353,0.338,0.521,0.431,0.707c0.092,0.194,0.273,0.446,0.217,0.6
		c-44.024,121.334-88.064,242.663-132.118,363.987C928.057,1087.55,927.376,1088.902,926.713,1090.424z"/>
	<path fill-rule="evenodd" clip-rule="evenodd" fill="#FFFFFF" d="M479.949,696.578c0-104.037,0-207.587,0-311.78
		c-42.011,0-83.389,0-125.197,0c0-19.342,0-38.042,0-56.757c4.461-1.354,305.398-1.723,313.581-0.304c0,18.613,0,37.3,0,56.676
		c-41.497,0-82.857,0-125.078,0c-0.541,8.604-0.206,16.602-0.266,24.575c-0.06,7.873-0.014,15.746-0.014,23.618
		c0,8.092,0,16.182,0,24.274c0,7.874,0,15.747,0,23.618c0,8.092,0,16.184,0,24.275c0,7.874,0,15.746,0,23.619
		c0,8.091,0,16.183,0,24.273c0,7.874,0,15.745,0,23.618c0,8.091,0,16.184,0,24.273c0,7.874,0,15.748,0,23.618
		c0,8.092,0,16.183,0,24.275c0,7.874,0,15.744,0,23.619c0,8.037,0,16.077,0,24.509C521.889,696.578,501.475,696.578,479.949,696.578
		z"/>
</g>
</svg>
